<svg width="88" height="117" viewBox="0 0 88 117" fill="none" xmlns="http://www.w3.org/2000/svg">
<g filter="url(#filter0_i_93_6598)">
<path d="M39.2458 114.769C40.4853 116.008 42.1662 116.704 43.9188 116.704C45.6714 116.704 47.3523 116.008 48.5918 114.769L85.9822 77.3784C86.6135 76.7687 87.117 76.0393 87.4634 75.2329C87.8098 74.4265 87.9921 73.5592 87.9998 72.6816C88.0074 71.804 87.8401 70.9336 87.5078 70.1213C87.1755 69.3091 86.6847 68.5711 86.0641 67.9505C85.4435 67.3299 84.7055 66.8391 83.8932 66.5068C83.081 66.1744 82.2106 66.0072 81.333 66.0148C80.4554 66.0225 79.5881 66.2048 78.7817 66.5512C77.9753 66.8976 77.2459 67.4011 76.6362 68.0324L50.5284 94.1403L50.5284 6.60955C50.5284 4.85658 49.832 3.1754 48.5925 1.93586C47.3529 0.696326 45.6718 -3.4218e-05 43.9188 -3.43713e-05C42.1658 -3.45245e-05 40.4847 0.696326 39.2451 1.93586C38.0056 3.1754 37.3092 4.85658 37.3092 6.60955L37.3092 94.1403L11.2013 68.0324C9.95476 66.8284 8.28518 66.1622 6.55216 66.1773C4.81915 66.1923 3.16139 66.8875 1.93591 68.1129C0.710444 69.3384 0.0153128 70.9962 0.00025323 72.7292C-0.0148063 74.4622 0.651405 76.1318 1.85539 77.3784L39.2458 114.769Z" fill="black"/>
</g>
<defs>
<filter id="filter0_i_93_6598" x="0" y="-6.10352e-05" width="89" height="116.704" filterUnits="userSpaceOnUse" color-interpolation-filters="sRGB">
<feFlood flood-opacity="0" result="BackgroundImageFix"/>
<feBlend mode="normal" in="SourceGraphic" in2="BackgroundImageFix" result="shape"/>
<feColorMatrix in="SourceAlpha" type="matrix" values="0 0 0 0 0 0 0 0 0 0 0 0 0 0 0 0 0 0 127 0" result="hardAlpha"/>
<feOffset dx="1"/>
<feGaussianBlur stdDeviation="4"/>
<feComposite in2="hardAlpha" operator="arithmetic" k2="-1" k3="1"/>
<feColorMatrix type="matrix" values="0 0 0 0 1 0 0 0 0 1 0 0 0 0 1 0 0 0 1 0"/>
<feBlend mode="normal" in2="shape" result="effect1_innerShadow_93_6598"/>
</filter>
</defs>
</svg>
